<?xml version="1.0" encoding="utf-8"?>
<!-- Generator: Adobe Illustrator 23.0.5, SVG Export Plug-In . SVG Version: 6.00 Build 0)  -->
<svg version="1.1" id="Layer_1" xmlns="http://www.w3.org/2000/svg" xmlns:xlink="http://www.w3.org/1999/xlink" x="0px" y="0px"
	 viewBox="0 0 800 800" style="enable-background:new 0 0 800 800;" xml:space="preserve">
<style type="text/css">
	.st0{fill:#231F20;}
	.st1{fill:#4E453E;}
	.st2{fill:#293B66;}
	.st3{fill:#C62A30;}
	.st4{fill:#A55AA3;}
	.st5{fill:#59B949;}
	.st6{fill:#FFFFFF;}
	.st7{fill:#3D2257;}
	.st8{fill:#6E499C;}
</style>
<path id="XMLID_3_" class="st0" d="M572.1,327.9c-12.4-8-10-15-6.4-25.6c3.7-10.8,8.3-24.2-2.5-42.8c-10.2-17.6-8.2-30.4-6.4-41.8
	c1.7-11.1,3.2-20.7-8.6-30c-9.6-7.6-11.4-26.3-13.2-44.5c-1.6-16.8-3.2-32.7-11-39.1c-2.8-2.3-6.4-3.3-10.5-2.8
	c-10.8,1.2-16.8-1.6-23.5-6c-1.2-0.8-2.5-1.7-3.8-2.6c-4.1-2.8-8.5-5.9-14.3-8.9c-8.6-4.4-20.1-8.6-37.6-11.1l-0.2,0
	c-54.7-0.3-82.7,21.1-96.5,39c-13.1,17-16.3,33.8-17,38.4c-0.5,0.1-1,0.3-1.5,0.5c-4.3-2.1-27.6-13-44.9-5.8
	c-7.8,3.3-13.2,9.7-16,19.3c-5.5,18.4-5.2,37-5,55.1c0.3,19.2,0.5,37.4-5.9,54.4c-1.9,4.9-3.6,9.2-5.1,13
	c-8.8,21.8-11.5,28.4,2.6,50.2c4.2,6.6,7.5,9.4,10.7,9.2c3.6-0.3,5.5-4.4,7.4-8.4c1.4-3.1,3.1-6.6,5.1-7.3c0.8-0.3,1.8-0.1,2.9,0.6
	c5.5,3.1,7.8,11.5,10.5,21.1c3,10.8,6.4,23.1,15.5,31.3c3.5,3.2,5.7,4.6,7.3,4.6c0.5,0,0.9-0.1,1.3-0.3c0.5-0.3,0.9-0.7,1.1-1.2
	c0.8-1.5,0.4-4-0.1-7.2c-1.1-7.3-1.5-13,3.6-13.8c7.7-1.3,9.5,0.4,13.7,4.6c0.6,0.6,1.2,1.2,1.9,1.8c-7.9,3.9-15.1,8.5-17.2,13.2
	c-0.2,0.4-0.4,1-0.7,1.6c-0.8,1.8-1.8,4.3-3,7.3c-7.5,18.4-25.2,61.5-34.4,69.8c-11.8,10.6-21.3,70-21.7,72.5l-0.2,1.6l9.3,2.1
	c-1.1,7.9-1.9,19.1,1,26.8c2.1,5.7,6.4,10.7,11.3,14.3c0,0.1,0.1,0.1,0.1,0.1l0,0c4.8,3.5,10.2,5.6,14.7,5.9c0.3,0,0.6,0,1,0
	c1.2,0,2.3-0.1,3.3-0.4c3.1-0.8,4.9-2.3,5.6-4.5c0.3-0.9,0.3-1.8,0.1-2.6c0,0,0.1,0,0.1,0c1.8,0.1,3.4-0.5,4.8-1.7
	c1.3-1.2,2.1-3,2.1-4.8c0-2,0.2-4.4,0.5-6.9c0.5-5.5,1.1-11.6-0.4-16.4l4,0.9l0-2.1c0-0.5,1.1-46,4.6-63.7c0.2-0.8,0.3-1.6,0.5-2.3
	c2.6-10.4,19.9-32.5,31.1-46c0.1,39.1-18.3,124.4-28.9,135.9c-12.8,14-20.7,73.4-21,75.9l-0.1,0.7l0.5,0.6
	c6.1,7.5,18.4,13.4,31.2,17.9c0,5.1-0.2,15.4-2.6,22.4c-0.3,0.6-1.2,2.4-1.1,4.3c-8.7,4.2-15.6,10.8-19.8,18.9
	c-1.4,2.7-2.4,5.5-2.9,8.1c0,0-1.4,7.3,0.3,9.4c2.8,7.1,12.9,8.6,23.9,8.6c4.5,0,9.1-0.3,13.3-0.5c7.4-0.4,13.1-2.2,17.7-3.7
	c3.7-1.2,6.6-2.1,8.4-1.6c5.5,1.7,11.4,0.9,16.1-2.4c2.2-1.5,3.2-6.5,3.7-12.1c0-0.1,0-0.3,0-0.3c0.5-5.9,0.3-12.4,0.1-16.3
	c1.4-0.2,2.2-0.5,2.7-1.1c2.3-2.8-1-10.5-3.3-15.1c0.4-0.4,0.7-1,1-1.6c0.7-1.7,0.9-3.7,1.1-5.9c0.2-2.2,0.3-4.7,0.5-7.4
	c0.3-5.4,0.9-11.6,1.9-18.2c0.5-3.3,1.1-6.7,1.8-10.2c0.2-0.9,0.4-1.7,0.5-2.6c0.2-0.9,0.4-1.7,0.6-2.6c0.4-1.7,0.7-3.5,1.2-5.2
	c0.4-1.7,0.8-3.5,1.3-5.2c0.4-1.7,0.9-3.4,1.3-5.1c1-3.4,1.9-6.7,2.8-9.9c1-3.2,1.9-6.3,2.9-9.2c0.5-1.5,0.9-2.9,1.4-4.3
	c0.5-1.4,0.9-2.7,1.4-4c1.8-5.1,3.4-9.3,4.5-12.2c0.6-1.5,1-2.6,1.3-3.4c0,0,0-0.1,0.1-0.1c0.7,0,1.3,0,2,0c1,0,2,0,3-0.1
	c0,0,0,0,0,0c0.1,0.2,0.2,0.4,0.3,0.7c0.5,1.1,1.1,2.7,1.9,4.8c0.8,2.1,1.8,4.6,2.8,7.6c1.1,2.9,2.2,6.3,3.4,9.9
	c1.2,3.7,2.5,7.6,3.7,11.9c1.3,4.2,2.5,8.7,3.7,13.4c0.6,2.3,1.1,4.7,1.7,7.1c0.5,2.4,1.1,4.9,1.6,7.3c1,5,1.8,10,2.4,15.1
	c0.6,5.1,1.1,10.2,1.4,15.2c0.2,2.5,0.3,5,0.5,7.6c0.1,1.3,0.2,2.6,0.5,3.9c0.2,1.1,0.6,2.3,1.3,3.4c-2.3,4.6-5.2,11.8-3,14.5
	c0.5,0.6,1.3,1,2.7,1.1c-0.2,4-0.3,10.5,0.1,16.3l-0.1,0.1c0,0.1,0.1,0.2,0.1,0.3c0.5,5.7,1.5,10.7,3.7,12.2
	c4.7,3.2,10.6,4.1,16.1,2.4c1.8-0.6,4.7,0.4,8.4,1.6c4.6,1.5,10.3,3.3,17.7,3.7c1.3,0.1,2.6,0.1,4,0.1c12.4,0,26.4-3.2,30-12.4
	c1.3-2.3,0.9-8.4,0.9-8.4c-0.3-2.8-1.2-5.6-2.6-8.4c-3.4-6.6-9.4-12-17.4-15.7c0.1-1.9-0.8-3.6-1.1-4.2c-2.4-7-2.6-17.3-2.6-22.4
	c12.8-4.5,25.1-10.4,31.2-17.9l0.5-0.6l-0.1-0.7c-0.3-2.5-8.2-61.9-21-75.9c-10.2-11.1-27.7-94.3-28.8-135.9
	c11.1,13.4,28.4,35.5,31,45.9c0.3,1.1,0.6,2.5,0.8,3.9c3.3,18.7,4.3,61.6,4.3,62.1l0,2.1l4-0.9c-1.5,4.8-0.9,10.9-0.4,16.4
	c0.4,3.9,0.7,7.5,0.2,9.8l-0.2,1.1l1,0.6c2.4,1.6,4.7,2.1,6.5,1.9c-0.1,0.8-0.1,1.7,0.1,2.6c0.6,2.1,2.5,3.6,5.6,4.5
	c1,0.3,2.2,0.4,3.3,0.4c0.3,0,0.6,0,1,0c4.6-0.3,10-2.4,14.7-5.9l0,0c0,0,0,0,0.1-0.1c4.9-3.6,9.2-8.6,11.3-14.3
	c2.8-7.7,2.1-18.9,1-26.8l9.3-2.1l-0.2-1.6c-0.4-2.5-10-61.9-21.7-72.5c-9.2-8.3-26.9-51.4-34.4-69.8c-1.6-4-2.9-7.1-3.7-8.8
	c-1.6-3.8-6.8-7.6-12.9-11c2.1-5,3.5-10.2,4.7-14.6c1.4-5,3-11.2,4.7-11.5c0.3-0.1,2.1,0.1,6.6,7.1c17.3,27.2,33.4,20.1,34,19.7
	l2.1-1l-1.5-1.7c-15.5-17.4-7.3-34-3.7-39.6c7.6,10.4,22.8,14.1,31.6,12.7c4.2-0.7,6.8-2.5,7.3-5.1
	C582.2,336.4,579,332.3,572.1,327.9z"/>
<g id="XMLID_5_">
	<path id="XMLID_615_" class="st1" d="M322.3,730.7c15.6,1.2,24.4-2.4,30.8-5.1c4.9-2,8.8-3.6,13.2-2c6.2,2.3,10.2-3.4,11.4-5.6
		c0.3-4.6,0.4-10.3,0.1-15.7c-3-0.1-7.5-0.5-14.2-1.2c-10.9-1.1-24.5-2.6-36.7-2.3c-2.3,0-4-0.5-5.1-1.5
		c-11,5.3-16.2,13.5-18.2,17.3c-1.7,3.3-2.7,6.7-3,9.6c0,0,0,0.1,0.1,0.1C301.7,725.8,305.6,729.4,322.3,730.7z"/>
	<path id="XMLID_689_" class="st1" d="M490.5,698.8c-12.2-0.2-25.8,1.2-36.7,2.3c-6.7,0.7-11.2,1.1-14.2,1.2
		c-0.2,5.4-0.2,11,0.1,15.7c1.3,2.2,5.2,7.9,11.4,5.6c4.5-1.6,7,0,10,1.8c4.2,2.6,13.1,4.5,28.9,3.3c19.6-1.5,23.1-7.2,23.7-9.7
		c-0.2-2.5-1-5.2-2.3-7.8c-1.9-3.7-6.2-9.7-15.7-14.1C494.6,698.3,492.8,698.9,490.5,698.8z"/>
</g>
<g id="XMLID_4_">
	<path id="XMLID_601_" class="st2" d="M393.6,578.4c-0.9-0.1-1.4-0.2-1.4-0.2s0.5-0.2,1.3-0.5c0.9-0.3,2.1-0.6,3.6-1
		c1-0.2,2.2-0.4,3.5-0.6c-1.4-2.3-2.8-8.3-3.2-24.7c-0.2-7-0.1-14,0-18.5c-2.6,2.8-5.5,5-8,5c-0.1,0-0.1,0-0.2,0
		c-0.7,0-1.5-0.2-2.2-0.4c-1.5,3.5-3.1,6.8-5,9.9C362,581,366.3,674.9,366.3,675.8l0.1,2.1l-2.1-0.3c-1.3-0.2-18.9-3.2-36.8-9
		c0,5.7-0.4,15.5-2.8,22.5l-0.1,0.3c-0.2,0.3-0.4,0.8-0.5,1.2c-0.2,0.7-0.3,1.5-0.1,2c0.3,0.5,1.2,0.8,2.5,0.8c0.1,0,0.3,0,0.4,0
		c12.4-0.2,26.1,1.2,37.1,2.3c6.6,0.7,13.4,1.4,16.3,1.3c0.4,0,0.8-0.1,1-0.1c0.3-1.4-3.7-11.7-3.6-11.8c0.1-0.1,0.2-0.3,0.3-0.4
		c0.5-0.7,0.8-1.6,1-2.9c0.2-1.4,0.4-3.2,0.5-5.3c0.1-2.2,0.2-4.6,0.3-7.3c0.2-5.4,0.6-11.8,1.5-18.6c0.4-3.4,1-6.9,1.6-10.4
		c0.2-0.9,0.3-1.8,0.5-2.6c0.2-0.9,0.4-1.8,0.5-2.7c0.4-1.8,0.7-3.5,1.2-5.3c0.4-1.8,0.8-3.5,1.3-5.3c0.5-1.8,0.9-3.5,1.3-5.2
		c0.5-1.7,1-3.4,1.4-5.1c0.5-1.7,1-3.3,1.5-5c1-3.2,2-6.4,3-9.3c0.5-1.5,1-2.9,1.5-4.3c0.5-1.4,1-2.7,1.5-4c0.9-2.6,1.8-4.9,2.6-6.9
		c0.8-2.1,1.5-3.8,2.2-5.3c0.4-0.8,0.7-1.5,1-2.2c-1.9,0-3.7-0.1-5.2-0.2C395.7,578.6,394.5,578.5,393.6,578.4z"/>
	<path id="XMLID_645_" class="st2" d="M417.1,531.5c-4.5-3.1-8.7-6.8-11.7-9.7c-1,1.6-2.6,4.2-4.5,6.8c-0.7,20.4,0.1,43.5,2.7,45.8
		c1,0.3,2.2,0.4,3.4,0.3c1.8-0.1,3.7-0.7,5.2-1.6c1.6-0.9,2.6-2.1,2.8-3.2C415.7,567.2,416.6,545.7,417.1,531.5z"/>
	<path id="XMLID_691_" class="st2" d="M450.9,678l0.2-2.2c0.1-1,9.6-96.7-10.5-130.1c-1.6-2.7-3.1-5.6-4.6-8.7
		c-1.2,0.4-2.4,0.6-3.7,0.6c-3.8,0-7.9-1.6-11.9-3.9c-0.5,12.8-1.4,34-2,37c-0.4,1.9-1.7,3.7-3.8,5.1c0.8,0.1,1.5,0.2,2.2,0.3
		c0.9,0.1,1.7,0.3,2.4,0.5c0.8,0.2,1.4,0.4,2,0.5c0.6,0.2,1.1,0.4,1.5,0.5c0.8,0.3,1.3,0.5,1.3,0.5s-0.5,0.1-1.4,0.1
		c-0.9,0.1-2.2,0.2-3.6,0.2c-0.8,0.1-1.6,0.1-2.4,0.1c-0.6,0-1.2,0.1-1.8,0.1c0.5,1.1,1.1,2.5,1.8,4.4c0.9,2.1,1.9,4.7,3,7.6
		c1.1,3,2.3,6.3,3.6,10c1.2,3.7,2.6,7.7,3.8,12c1.3,4.3,2.5,8.8,3.7,13.5c0.6,2.4,1.1,4.8,1.7,7.2c0.5,2.5,1.1,4.9,1.6,7.4
		c1,5,1.8,10.2,2.4,15.3c0.6,5.2,1,10.4,1.2,15.5c0.1,2.5,0.2,5.1,0.3,7.5c0.1,1.2,0.2,2.4,0.4,3.5c0.2,1.1,0.5,2,1,2.6
		c0.3,0.3,0.5,0.5,0.9,0.7c0.2,0.1,0.4,0.2,0.6,0.2l0.4,0.1c0.1,0,0.2,0,0.3,0.1c0.8,0.2,1.8,0.1,2.8-0.1c2-0.4,4.1-1.3,6.1-2.2
		c4-1.7,8.2-3.6,12.5-3.6c1.1,0,2.1,0.1,3.2,0.4c1.1,0.3,1.9,0.6,2.7,0.8c1.6,0.5,3.2,0.8,4.7,1.1c3,0.5,5.6,0.8,7.8,0.7
		c2.2,0,3.9-0.3,4.9-0.7c0.5-0.2,0.9-0.5,1.1-0.7c0.1-0.1,0.2-0.2,0.2-0.3c0-0.1,0.1-0.1,0.1-0.1c0,0,0,0.2-0.1,0.5
		c-0.1,0.3-0.4,0.7-0.9,1.1c-1,0.8-2.8,1.6-5.1,2c-2.3,0.4-5.2,0.5-8.4,0.1c-1.6-0.2-3.3-0.5-5.1-1c-0.9-0.2-1.8-0.6-2.5-0.7
		c-0.8-0.2-1.6-0.3-2.5-0.2c-1.7,0-3.6,0.4-5.4,1.1c-1.9,0.6-3.8,1.5-5.8,2.4c-2,0.9-4.2,1.9-6.7,2.5c-1.3,0.3-2.6,0.5-4.2,0.2
		c-0.2,0-0.4-0.1-0.6-0.1l-0.4-0.1c-0.3-0.1-0.5-0.2-0.8-0.3c-2,4.3-3.3,8.6-3.1,9.9c0.2,0.1,0.6,0.1,1,0.1
		c2.9,0.1,9.7-0.6,16.3-1.3c11-1.1,24.8-2.6,37.1-2.3c0.2,0,0.3,0,0.5,0c1.3,0,2.1-0.3,2.4-0.8c0.3-0.5,0.2-1.3-0.1-2
		c-0.1-0.4-0.3-0.8-0.5-1.2l-0.1-0.3c-2.4-7.1-2.8-16.9-2.8-22.5c-17.9,5.9-35.5,8.8-36.8,9L450.9,678z"/>
</g>
<g id="XMLID_14_">
	<path id="XMLID_621_" class="st3" d="M343.8,304.9c4.2,2.3,35.3,21.6,58.3,22.7c0.4,0,0.8,0,1.2,0c4.7-0.3,11.2-2.5,18.6-5.8
		c7.6-3.4,16.2-7.9,24.9-12.9c6.1-3.5,12.3-7.2,18.2-10.9c6.6-4.1,12.8-8.1,18.2-11.6c-24.8,10.1-62.8,38.3-80.4,37.6
		C390.7,325.3,353.4,309.3,343.8,304.9z"/>
	<path id="XMLID_703_" class="st3" d="M468.9,345c-0.2,0.2-0.4,0.4-0.6,0.7c-13,14.4-40.6,31.1-58.6,32.5
		c-21.2-1.1-55-21.3-66.6-32.5c7.8,9.1,19.8,20.8,34.7,28.3c0.5,0.3,1.1,0.5,1.6,0.8c0.6,0.3,1.2,0.6,1.9,0.8
		c1.4,0.6,2.7,1.2,4.1,1.7c4.7,1.7,9.6,3,14.8,3.6c1.2,0.1,2.4,0.2,3.6,0.3c1.7,0.1,3.4,0.1,5.1,0.1c1.5,0,3-0.1,4.4-0.3
		c1.2-0.1,2.4-0.3,3.5-0.5c5.7-0.9,11.1-2.5,16-4.7c0.1,0,0.2-0.1,0.3-0.1c1.7-0.8,3.4-1.6,5.1-2.4c13.8-7.4,24-18.4,30.4-26.9
		c0.8-1,1.5-2,2.1-2.9c0.4-0.6,0.9-1.2,1.3-1.8c-0.8,0.8-1.6,1.7-2.5,2.6c0,0,0,0.1-0.1,0.1C469.4,344.5,469.2,344.8,468.9,345z"/>
</g>
<path id="XMLID_712_" class="st4" d="M406.1,390.4c-0.8,0-1.6,0-2.4-0.1c-1-0.1-2.3-0.1-3.7-0.2l-4.4,10.1c4.2,7.9,8.1,14.3,10,17.3
	c3.9-6.6,9.2-14.8,14.1-22.2l-2.3-5.3C414.2,390.5,408.7,390.4,406.1,390.4z"/>
<g id="XMLID_13_">
	<path id="XMLID_619_" class="st5" d="M356.3,124.9c11.8-20.1,28.3-33.1,47.9-37.8c24.6-5.8,41.9-6.5,52.9-5.8
		c-6.3-2.1-13.8-3.9-23.1-5.3c-42.1-0.2-74.5,12.8-93.6,37.7c-12,15.5-15.4,31.2-16.2,36.2l20.5,2.6
		C345.7,148.6,349,137.3,356.3,124.9z"/>
	<path id="XMLID_701_" class="st5" d="M470.6,87c-1.6-0.5-21.9-6.8-65.6,3.5c-40.3,9.5-54.3,53.1-56.8,62.5l24,3
		c3-3.8,17.1-21.2,36.5-36.6c25.7-20.4,50.6-29.3,72.5-26.1C478.1,91.3,474.7,89.1,470.6,87C470.6,87,470.6,87,470.6,87z"/>
	<g id="XMLID_12_">
		<path id="XMLID_683_" class="st5" d="M570.2,330.7c-14.6-9.4-11.4-18.8-7.7-29.6c3.6-10.7,7.8-22.8-2.2-40
			c-10.8-18.6-8.6-32.7-6.9-44c1.7-10.9,2.9-18.7-7.3-26.7c-10.8-8.5-12.7-28-14.5-46.9c-1.6-16.1-3-31.2-9.8-36.7
			c-2.1-1.7-4.7-2.4-7.9-2.1c-11.6,1.3-18.3-1.7-25.1-6.2c-28.8-8.7-58.3,8-78,23.6c-17.2,13.6-30.1,28.7-34.7,34.4l21.6,2.7
			c0.2-0.3,0.4-0.6,0.6-0.9c0.8-1.2,1.9-2.8,3.4-4.9s3.5-4.5,5.9-7.1c2.4-2.7,5.2-5.5,8.5-8.5c3.3-2.9,7.1-5.9,11.3-8.6
			c4.3-2.7,9.1-5.2,14.3-7.2c5.2-2,10.9-3.4,16.7-4c5.8-0.6,11.9-0.4,17.7,0.6c5.9,1,11.5,2.7,17,5c5.4,2.4,10.4,5.4,14.6,9.2
			c4.2,3.7,7.7,8,10.3,12.4c2.6,4.4,4.5,9,5.7,13.2c1.3,4.3,2,8.3,2.2,11.9c0.3,3.6,0.1,6.7-0.1,9.3c-0.3,2.6-0.7,4.5-1,5.9
			c-0.3,1.3-0.6,2-0.6,2s0-0.7-0.1-2.1c-0.1-1.3-0.3-3.3-0.5-5.8c-0.3-2.5-0.6-5.5-1.2-8.8c-0.6-3.4-1.3-7.1-2.6-11.1
			c-1.3-4-3-8.1-5.5-12.2c-2.5-4-5.7-7.9-9.6-11.2c-3.9-3.3-8.5-6.2-13.5-8.3c-4.9-2.1-10.4-3.7-15.9-4.6
			c-5.5-0.9-11.1-1.1-16.5-0.6c-5.4,0.5-10.7,1.8-15.6,3.6c-4.9,1.8-9.4,4.1-13.5,6.7c-4.1,2.5-7.8,5.3-11,8
			c-6.4,5.5-11.1,10.8-14.2,14.7c-1.3,1.6-2.3,3-3.1,4l7.2,0.9l25.8-3.6c0,0,0,0,0,0c0.2-0.4,0.6-0.9,1.1-1.5
			c0.5-0.6,1.1-1.4,1.8-2.2c0.7-0.8,1.6-1.8,2.6-2.7c1-0.9,2.1-2,3.3-2.9c1.2-1,2.6-1.9,4-2.9c1.5-0.9,3-1.8,4.6-2.6
			c1.6-0.8,3.3-1.5,5-2.1c1.7-0.6,3.5-1.1,5.3-1.5c0.4-0.1,0.9-0.2,1.3-0.3c0.4-0.1,0.9-0.1,1.3-0.2c0.9-0.1,1.7-0.2,2.6-0.3
			c0.4,0,0.8-0.1,1.3-0.1c0.4,0,0.8,0,1.2,0c0.8,0,1.6,0,2.4,0c1.6,0.1,3,0.2,4.3,0.4c1.3,0.3,2.5,0.4,3.6,0.8c1,0.3,2,0.5,2.7,0.8
			c1.5,0.5,2.3,0.9,2.3,0.9s-0.9,0-2.4-0.1c-0.4,0-0.8,0-1.3,0c-0.5,0-1,0-1.5,0c-0.5,0-1.1,0-1.7,0c-0.6,0-1.2,0-1.8,0
			c-1.3,0.1-2.7,0.2-4.1,0.4c-0.7,0.1-1.5,0.2-2.2,0.3c-0.4,0.1-0.8,0.1-1.1,0.2c-0.4,0.1-0.8,0.2-1.1,0.2c-0.4,0.1-0.8,0.2-1.2,0.2
			c-0.4,0.1-0.8,0.2-1.2,0.3c-0.4,0.1-0.8,0.2-1.2,0.3c-0.4,0.1-0.8,0.2-1.2,0.3c-1.6,0.4-3.1,1-4.7,1.6c-0.8,0.3-1.5,0.6-2.3,1
			c-0.7,0.4-1.5,0.7-2.2,1.1c-1.5,0.7-2.8,1.6-4.2,2.4c-1.3,0.8-2.6,1.7-3.7,2.5c-1.1,0.9-2.2,1.7-3.2,2.5c-1,0.8-1.8,1.6-2.6,2.3
			c0,0-0.1,0.1-0.1,0.1l46.7-6.6l0.3,0.1c21,5,34.9,28.2,41.4,68.8c0.2,1.1,0.3,2.2,0.5,3.3c1.3-0.8,3-1.3,5-1
			c3.4,0.6,6.5,3.6,9.1,9.1c1.2,2.5,2.4,5.5,3.4,9.1c3.7,12.2,2.9,22.7,0.2,30.7c0,0.4,0,1.1,0.1,2.2c0,1.6,0.1,3.9,0.3,6.7
			c0.2,2.8,0.4,6,0.7,9.4c0.3,3.4,0.7,7.1,1.2,10.7c0.1,0.9,0.3,1.8,0.4,2.7c0.1,0.9,0.3,1.8,0.5,2.7c0.3,1.8,0.7,3.5,1.1,5.2
			c0.4,1.6,0.8,3.2,1.3,4.7c0.2,0.7,0.5,1.5,0.7,2.2c0.3,0.7,0.5,1.3,0.7,2c0.3,0.6,0.5,1.2,0.8,1.8c0.3,0.5,0.5,1.1,0.8,1.6
			c0.5,1,1,1.8,1.5,2.5c0.4,0.7,0.8,1.2,1.1,1.5c0.2,0.3,0.4,0.5,0.4,0.5c0,0-0.2-0.2-0.5-0.4c-0.4-0.2-0.9-0.6-1.5-1.2
			c-0.6-0.5-1.3-1.3-2.1-2.2c-0.4-0.5-0.7-1-1.1-1.5c-0.4-0.6-0.7-1.1-1.1-1.8c-0.4-0.6-0.7-1.3-1-2c-0.3-0.7-0.7-1.4-1-2.2
			c-0.6-1.5-1.2-3.1-1.7-4.8c-0.5-1.7-1-3.5-1.4-5.3c-0.4-1.8-0.8-3.6-1.2-5.5c-0.3-1.9-0.6-3.7-0.9-5.5c-0.2-1.8-0.5-3.6-0.6-5.4
			c-0.4-3.5-0.6-6.8-0.7-9.6c0-0.6,0-1.2-0.1-1.7c-1,1.6-2,3-3.1,4.2c-2.8,3-5.8,4.8-8.7,5c-2.3,23.2-13.7,42.9-30.1,58.9
			c-6.9,6.8-14.8,12.9-23.2,18.3c0.1,0.8,0.1,1.6,0.1,2.4c4.4,1.7,9.4,3.9,14.2,6.3c1.9-4.6,3.2-9.5,4.4-13.9
			c1.6-5.8,2.8-10.4,5-12.6c0.7-0.7,1.5-1.2,2.5-1.3c2.9-0.4,5.9,2.2,10,8.7c12,18.9,22.8,19.8,27.4,19.1
			c-17.8-22.4-0.9-43.8-0.7-44l1.6-1.9l1.2,2.2c6.1,10.6,21.4,14.5,29.5,13.2c2.5-0.4,4.3-1.3,4.5-2.4
			C578.4,337.8,576.5,334.8,570.2,330.7z"/>
		<g id="XMLID_11_">
			<path id="XMLID_648_" class="st5" d="M389.4,534.6C389.4,534.6,389.4,534.6,389.4,534.6c1.8,0,4.8-2.9,7.9-6.8
				c2-2.5,4-5.5,5.7-8.4c-1.1-1.2-1.8-1.9-1.9-2c-2.9-3.5-2.7-13.4-2.1-27.1c0.2-4.8,0.4-9.4,0.2-11.6c0-0.1,0-0.2,0-0.4
				c-0.4,5.1-0.8,10.4-1.5,15.7c-1.7,14-4.6,28.3-9.3,40.5C388.7,534.5,389,534.6,389.4,534.6z"/>
			<path id="XMLID_708_" class="st5" d="M434.6,533.8c-5.3-12.5-9.1-27.3-11.6-41.7c-4.9-27.7-5.5-54.5-4.5-62.4
				c0.2-1.8,0.7-4,1.4-6.6c-4.3,2.2-11.6,6.7-17.1,10.2c-0.9,11.3-0.9,38.5-0.2,44.9c0.3,2.5,0.1,7-0.2,12.2c-0.4,8.8-1,22,1.3,24.7
				c1,1.1,2.3,2.6,4,4.2c2.6,2.6,6,5.5,9.6,8.1c1.1,0.8,2.2,1.6,3.3,2.3C425.7,532.9,430.8,534.9,434.6,533.8z"/>
			<path id="XMLID_709_" class="st5" d="M433.6,385.1c-1.2,0.4-2.5,0.9-3.8,1.3c-2.1,3-4.2,6.1-6.3,9.3c-0.8,1.1-1.5,2.3-2.3,3.4
				c-5,7.6-9.8,15-13.2,20.8c-2.3,3.9-4,7-4.7,9c5.2-3.3,13.7-8.5,17.6-10c1.7-5.6,4-12.1,6.4-18.4
				C429.7,394.9,431.8,389.6,433.6,385.1z"/>
			<path id="XMLID_717_" class="st5" d="M399.3,433.8c0.1-0.8,0.1-1.5,0.2-2.1l-0.1-0.2c0,0,0.1-0.1,0.1-0.1
				c0.1-0.7,0.2-1.4,0.3-1.9c0.3-1.7,1.7-4.8,3.9-8.7c-1.2-1.8-6.7-10.2-12.2-20.9c-2.1-4.1-4.3-8.6-6.2-13.2
				c-0.4-0.1-0.7-0.2-1-0.4c5.5,13.6,13.5,34.3,14.6,43.4C399,430.7,399.2,432,399.3,433.8z"/>
		</g>
		<path id="XMLID_727_" class="st5" d="M309.5,347.4c-5.8-4.9-10.9-10.1-15.1-15.7c0.2,1,0.5,2.1,0.7,3.3c0.5,2.5,1,5.1,1.6,7.7
			c0.3,1.3,0.5,2.6,0.8,3.9c0.3,1.3,0.5,2.5,0.8,3.8c0.3,1.2,0.5,2.4,0.7,3.5c0.2,1.1,0.4,2.2,0.6,3.2c0.2,1,0.3,1.9,0.4,2.7
			c0.2,0.8,0.2,1.5,0.3,2.1c0.2,1.2,0.3,1.9,0.3,1.9s-0.5-0.5-1.2-1.5c-0.4-0.5-0.8-1.1-1.2-1.8c-0.5-0.7-0.9-1.6-1.3-2.5
			c-0.5-0.9-0.8-2-1.3-3.1c-0.4-1.1-0.8-2.3-1.1-3.5c-0.4-1.2-0.7-2.5-1.1-3.8s-0.7-2.6-1-3.9c-0.3-1.3-0.6-2.6-0.9-3.9
			c-0.3-1.3-0.5-2.6-0.8-3.8c-0.2-1.2-0.5-2.4-0.7-3.6c-0.2-1.1-0.4-2.2-0.5-3.2c-0.3-2-0.5-3.7-0.7-4.8c0-0.2,0-0.4-0.1-0.6
			c-6.6-11.1-10.4-23.4-11.6-37.2c-3,0-6.2-1.8-9.2-5c-3.1-3.4-6-8.5-7.6-15.1c0,0,0,0.1,0,0.1c-0.3,1.5-0.6,3.2-1,5
			c-0.3,1.8-0.7,3.6-1.1,5.6c-0.7,3.9-1.4,8-2,12.1c-1.3,8.2-2.1,16.6-2,22.8c0,0.8,0,1.5,0,2.2c0,0.7,0,1.4,0.1,2
			c0.1,1.3,0.2,2.3,0.3,3.2c0.1,0.9,0.2,1.6,0.4,2.1c0.1,0.5,0.2,0.7,0.2,0.7s-0.1-0.2-0.4-0.6c-0.1-0.2-0.3-0.5-0.5-0.8
			c-0.2-0.3-0.3-0.7-0.5-1.1c-0.3-0.9-0.7-2-0.9-3.3c-0.3-1.3-0.5-2.7-0.6-4.3c-0.2-3.2-0.2-6.9,0-10.9c0.1-2,0.2-4,0.4-6.1
			c0.2-2.1,0.4-4.2,0.6-6.3c0.2-2.1,0.5-4.2,0.8-6.2c0.3-2.1,0.6-4.1,0.9-6c0.6-3.9,1.3-7.5,1.9-10.6c0.6-3.1,1.1-5.7,1.5-7.5
			c0.3-1.2,0.5-2.1,0.6-2.5c0-5.1,0.7-10.7,2.5-16.6c3.4-11.4,7.6-17.4,12.6-18.2c2.2-0.4,4.1,0.4,5.5,1.3c0.2-1.2,0.4-2.4,0.5-3.6
			c4.3-27,11.9-46.3,22.7-57.6c-0.1,0-0.2,0-0.3,0c-0.7-0.1-1.5,0-2.3-0.1c-0.8,0.1-1.8,0.1-2.7,0.4c-1,0.1-1.9,0.5-3,0.8
			c-0.5,0.2-1,0.4-1.5,0.7c-0.3,0.1-0.5,0.2-0.8,0.3l-0.8,0.4c-0.5,0.3-1,0.6-1.5,0.9c-0.5,0.3-1,0.7-1.5,1.1
			c-0.5,0.4-1,0.7-1.5,1.1c-0.4,0.4-0.9,0.8-1.3,1.2c-0.4,0.4-0.9,0.8-1.3,1.2c-0.4,0.4-0.8,0.9-1.2,1.3c-0.8,0.9-1.6,1.7-2.2,2.6
			c-0.6,0.9-1.3,1.7-1.8,2.4c-0.6,0.7-1,1.5-1.4,2.1c-0.4,0.7-0.8,1.2-1.1,1.7c-0.6,0.9-1,1.5-1,1.5s0.2-0.6,0.6-1.6
			c0.2-0.5,0.5-1.1,0.8-1.9c0.3-0.7,0.6-1.6,1.1-2.4c0.5-0.9,0.9-1.8,1.5-2.8c0.5-1,1.2-2,1.9-3c0.3-0.5,0.7-1,1-1.6
			c0.4-0.5,0.8-1,1.2-1.5c0.4-0.5,0.8-1,1.3-1.5c0.4-0.5,1-0.9,1.4-1.4c0.5-0.5,1-0.9,1.5-1.3c0.5-0.4,1.1-0.8,1.6-1.2l0.8-0.6
			c0.3-0.2,0.6-0.3,0.9-0.5c0.6-0.3,1.2-0.6,1.7-0.9c1.2-0.4,2.4-1,3.6-1.2c0.6-0.1,1.2-0.3,1.7-0.3c0.6-0.1,1.1-0.1,1.6-0.1
			c1.1,0,2,0,2.9,0.2c0.9,0.1,1.6,0.3,2.2,0.5c0.3,0.1,0.6,0.2,0.9,0.3c2.6-2.3,5.4-4.1,8.4-5.5c-7.5-3.3-25.8-10-39.2-4.4
			c-6.8,2.9-11.5,8.6-14,17.1c-5.3,17.9-5.1,36.3-4.8,54c0.3,19.6,0.5,38.1-6.2,55.6c-1.9,4.9-3.6,9.2-5.1,13
			c-8.7,21.6-10.8,26.8,2.3,47.1c4.5,7,6.8,7.7,7.6,7.6c1.6-0.1,3.1-3.4,4.5-6.4c1.8-3.9,3.7-8,7.2-9.1c1.8-0.6,3.7-0.3,5.7,0.9
			c6.7,3.8,9.2,12.8,12.1,23.2c2.9,10.4,6.1,22.1,14.5,29.6c2.5,2.3,3.8,3.1,4.5,3.5c0-1-0.3-3-0.5-4.5c-0.9-6.1-2.4-16.2,6.5-17.7
			c9.4-1.6,12.3,1.3,16.7,5.6c0.9,0.8,1.8,1.7,2.8,2.7c2.8-1.3,5.7-2.5,8.3-3.6C326.6,360.6,317.6,354.2,309.5,347.4z"/>
	</g>
</g>
<g id="XMLID_8_">
	<path id="XMLID_728_" class="st6" d="M317.6,307.6c-0.5-0.6-3.1-3.9-3.6-4.5c0,0.5,1.9,4.9,3.6,7.3V307.6z"/>
	<g id="XMLID_7_">
		<path id="XMLID_605_" class="st6" d="M347.4,156.4l-25.2-3.2c-1.3,0.3-2.7,0.8-3.9,1.3c-4.4,1.7-8.3,4.4-11.8,7.8
			c-13.8,13.6-20.4,38.9-23.6,62.3c-0.4,3-0.8,5.9-1,8.8c-2,19.2-1.8,35.8-1.6,41.3c0.1,0.3,0.1,0.6,0.1,0.9c0,0.4,0,0.7,0,1
			c0,0.2,0,0.4,0,0.4h0c0,16.9,4,31.8,11.9,44.8c4.9,8.1,11.4,15.4,19.4,22.2c7.1,6,18.9,13.5,31.6,20.6c1.1,0.6,2.1,1.2,3.2,1.8
			c0.3,0.1,0.5,0.3,0.8,0.4c0.8,0.4,1.5,0.8,2.3,1.2c9.8,5.2,19.9,9.9,28.7,13.2c1.5,0.6,3,1.1,4.4,1.6c0.4,0.1,0.7,0.2,1.1,0.4
			c1.5,0.5,2.9,0.9,4.2,1.3c3.5,1,6.6,1.6,9.2,1.8c0.2,0.1,0.4,0.1,0.7,0.2c0.8,0.2,2.1,0.3,3.6,0.4c4.4,0.4,10.8,0.4,13-0.2
			c0.4-0.1,0.8-0.2,1.2-0.2c1.1-0.2,2.3-0.5,3.4-0.7c2.9-0.7,5.8-1.4,8.8-2.3c1.8-0.5,3.5-1.1,5.3-1.7c0.7-0.2,1.4-0.5,2.2-0.7
			c1.5-0.5,2.9-1,4.4-1.6c9.3-3.6,18.6-8,27.5-13.4c1.3-0.7,2.5-1.5,3.8-2.3c1.1-0.7,2.3-1.5,3.4-2.2c1.1-0.7,2.1-1.4,3.2-2.2
			c28.6-19.9,50.9-48.7,50.9-82.1v0c0-0.1,0-0.2,0-0.3c0-0.2,0-0.6,0-1c0-0.2,0-0.5,0.1-0.8c0,0,0,0,0,0c0.1-5.1,0.3-19.6-1.2-36.8
			c0,0,0-0.4-0.1-1.3v0c-0.4-3.9-0.8-8-1.4-12.1l0,0c0,0,0,0,0,0c-4.2-30.9-14.5-65.1-39.3-71.3l-49.8,7l-28.3,4l-8.9-1.1l-25.7-3.3
			L347.4,156.4z M303.3,218.1c3.2-4,35.2,10.3,39,13.5c3.9,3.2,39.4,29.1,47.6,26.5c8.3-2.6,8.4-10.2,8.4-10.2
			c0.1,0.7,0.1,1.3,0.2,1.9c0.4,4.5,0.1,7.5-0.5,9.4c0,0.1,0,0.1-0.1,0.2c-1.3,3.9-3.9,3.2-3.9,3.2l-11.3,2.4l-0.4,0.4
			c0,0-0.7,0.7-1.9,1.9c-5.4,5-21.4,18.5-37.3,18.5c-1.9,0-3.9-0.2-5.8-0.6c-20.2-4.6-27-53.7-27.8-60.7
			C305.1,221.1,302.7,218.9,303.3,218.1z M381.6,297.7c0.2-0.3,0.5-0.6,0.7-0.8c0.5-0.4,0.8-0.5,1.2-0.6v0l0.6-0.1
			c0.1,0,0.2-0.1,0.4-0.1c0.1,0,0.2-0.1,0.4-0.1c0.1,0,0.2-0.1,0.4-0.1c0,0,0,0,0,0c0.1,0,0.2-0.1,0.4-0.2c0.1-0.1,0.3-0.1,0.4-0.3
			c0.1-0.1,0.3-0.2,0.4-0.3c0.3-0.3,0.5-0.5,0.8-0.8c0.1-0.1,0.3-0.3,0.4-0.5c0.1-0.2,0.2-0.3,0.4-0.5l0.7-1.1l0.8-1.1
			c0.2-0.4,0.5-0.8,0.8-1.2c0.2,1,0.2,1.9,0,2.9c-0.1,0.5-0.2,0.9-0.3,1.4c-0.1,0.2-0.1,0.5-0.2,0.7c-0.1,0.2-0.2,0.5-0.3,0.7
			c-0.1,0.2-0.2,0.5-0.3,0.7l-0.3,0.4c0.4,0.1,0.8,0.2,1.1,0.3c0.5,0.2,0.8,0.4,0.8,0.4s-0.3,0-0.8,0.2c-0.5,0.1-1.1,0.4-1.8,0.7
			c-0.5,0.2-0.9,0.4-1.4,0.6c0,0,0,0,0,0c-0.2,0.2-0.5,0.3-0.7,0.4c-0.2,0.1-0.5,0.2-0.7,0.2c0.5,0.5,1.2,1,1.9,1.4
			c1.7,1.1,3.6,2.1,5.5,3c1.9,0.9,3.9,1.8,5.8,2.7l3,1.2c0.9,0.4,1.9,0.7,2.7,1.1l0.6-0.2l1.5-0.6c1-0.4,2-0.8,3-1.2
			c2-0.8,3.9-1.7,5.8-2.6c1.9-0.9,3.8-1.9,5.5-3c0.8-0.5,1.7-1.2,2.2-1.8c0,0,0.1-0.1,0.1-0.1c-0.1-0.1-0.3-0.1-0.5-0.2
			c-0.2-0.1-0.3-0.1-0.5-0.2c-0.2-0.1-0.5-0.2-0.9-0.3c-0.7-0.3-1.8-0.6-2.8-0.8c-1-0.3-2.1-0.5-2.9-0.6c-0.8-0.1-1.3-0.1-1.3-0.1
			s0.5-0.2,1.3-0.4c0.8-0.2,1.9-0.4,3-0.5c0.3,0,0.6-0.1,0.9-0.1c-0.1-0.1-0.1-0.3-0.2-0.4c-0.1-0.2-0.2-0.5-0.3-0.7
			c-0.1-0.2-0.2-0.5-0.2-0.7c-0.1-0.5-0.2-0.9-0.3-1.4c-0.1-0.5-0.1-1-0.1-1.4c0-0.5,0-0.9,0.1-1.4c0.5,0.8,1,1.6,1.5,2.3
			c0.2,0.4,0.5,0.7,0.7,1.1c0.1,0.2,0.2,0.3,0.4,0.5c0.1,0.2,0.3,0.3,0.4,0.5c0.1,0.1,0.3,0.3,0.4,0.4c0.1,0.1,0.3,0.3,0.4,0.4
			l0.4,0.3c0.1,0.1,0.3,0.2,0.4,0.3c0,0,0,0,0,0c0.1,0.1,0.3,0.1,0.4,0.2c0.1,0.1,0.3,0.1,0.4,0.1c0.1,0,0.2,0.1,0.4,0.1
			c0.1,0,0.2,0,0.4,0l0.9,0.2l0.2,0.1c0.4,0.3,0.8,0.7,1.1,1.3c0.3,0.6,0.3,1.4,0.2,1.9c-0.1,0.4-0.3,0.7-0.4,1
			c-0.1,0.1-0.1,0.2-0.2,0.3c-0.2,0.3-0.5,0.6-0.7,0.8c-0.9,1-1.9,1.6-2.9,2.3c-1.9,1.2-3.9,2.3-5.9,3.2c-2,1-4,1.8-6,2.7
			c-1,0.4-2,0.8-3.1,1.2l-1.5,0.6l-0.8,0.3c-0.2,0.1-0.2,0.1-0.5,0.2l0,0l-0.1,0c-0.1,0-0.2,0-0.3,0c-0.2,0-0.2,0-0.2,0l-0.1,0
			c-0.1,0-0.2,0-0.2-0.1l-0.1,0l-0.2-0.1c-1.1-0.4-2.1-0.8-3.1-1.2c-1-0.4-2-0.8-3-1.3c-2-0.9-4-1.8-6-2.7c-2-1-3.9-2-5.9-3.2
			c-1-0.6-1.9-1.3-2.9-2.2c-0.2-0.2-0.5-0.5-0.7-0.9c-0.2-0.4-0.5-0.9-0.5-1.8C381.2,298.5,381.4,298.1,381.6,297.7z M395.4,282.8
			c0,0,0.2-0.3,0.6-0.8c0.4-0.5,1-1.1,1.8-1.8c0.4-0.3,0.9-0.6,1.4-0.9c0.5-0.3,1.1-0.5,1.7-0.8c0.3-0.1,0.6-0.2,1-0.3
			c0.3-0.1,0.7-0.2,1-0.2c0.7-0.1,1.4-0.2,2.2-0.2c0.4,0,0.7,0,1.1,0c0.4,0,0.7,0.1,1.1,0.1c0.7,0.1,1.4,0.3,2,0.5
			c0.7,0.2,1.2,0.5,1.8,0.8c0.6,0.3,1,0.6,1.4,1c0.4,0.4,0.8,0.6,1.1,1c0.3,0.3,0.5,0.6,0.7,0.9c0.4,0.5,0.5,0.8,0.5,0.8
			s-0.4-0.1-0.9-0.2c-0.3-0.1-0.6-0.2-1-0.3c-0.4-0.1-0.8-0.2-1.3-0.3c-0.5-0.1-0.9-0.3-1.5-0.3c-0.5-0.1-1-0.2-1.6-0.3
			c-0.5,0-1.1-0.2-1.7-0.2c-0.3,0-0.6,0-0.9-0.1c-0.3,0-0.6,0-0.9,0c-0.6,0-1.2,0.1-1.7,0.1c-0.6,0-1.1,0.1-1.7,0.2
			c-0.6,0.1-1.1,0.2-1.6,0.3c-0.5,0.1-1,0.2-1.5,0.3c-0.5,0.1-0.9,0.2-1.3,0.3c-0.4,0.1-0.7,0.2-1,0.2
			C395.8,282.7,395.4,282.8,395.4,282.8z M412.1,263.2c0.4,0.4,0.8,0.6,1.1,1c0.3,0.3,0.5,0.6,0.7,0.9c0.4,0.5,0.5,0.8,0.5,0.8
			s-0.4-0.1-0.9-0.2c-0.3-0.1-0.6-0.2-1-0.3c-0.4-0.1-0.8-0.2-1.3-0.3c-0.5-0.1-0.9-0.3-1.5-0.3c-0.5-0.1-1-0.2-1.6-0.3
			c-0.5-0.1-1.1-0.2-1.7-0.2c-0.3,0-0.6,0-0.9,0c-0.3,0-0.6,0-0.9,0c-0.6,0-1.2,0.1-1.7,0.1c-0.6,0.1-1.1,0.1-1.7,0.2
			c-0.5,0.1-1.1,0.2-1.6,0.3c-0.5,0.1-1,0.2-1.5,0.3c-0.5,0.1-0.9,0.2-1.3,0.3c-0.4,0.1-0.7,0.2-1,0.2c-0.6,0.1-0.9,0.2-0.9,0.2
			s0.2-0.3,0.6-0.8c0.4-0.5,1-1.1,1.8-1.8c0.3-0.2,0.6-0.5,1-0.7c0.1-0.1,0.3-0.2,0.4-0.2c0.5-0.3,1-0.5,1.6-0.7
			c0.1,0,0.1,0,0.2-0.1c0.3-0.1,0.6-0.2,1-0.3c0.3-0.1,0.7-0.2,1-0.2c0.1,0,0.3-0.1,0.4-0.1c0.6-0.1,1.1-0.2,1.7-0.2
			c0.4,0,0.7,0,1.1,0c0.1,0,0.2,0,0.3,0c0.3,0,0.5,0.1,0.8,0.1c0,0,0.1,0,0.1,0c0.7,0.1,1.3,0.3,1.9,0.5c0.7,0.2,1.2,0.5,1.8,0.8
			c0.3,0.2,0.7,0.4,0.9,0.6C411.7,263,411.9,263.1,412.1,263.2z M404.5,223.8c-5.6-0.8-11.2-1.9-16.7-3.1
			c-5.5-1.2-10.8-2.6-15.9-3.9c-1.3-0.3-2.6-0.7-3.8-1c-1.3-0.3-2.5-0.6-3.7-0.9c-1.2-0.3-2.4-0.6-3.6-0.9c-1.2-0.2-2.4-0.5-3.6-0.7
			c-4.7-0.9-9.2-1.4-13.4-1.7c-1,0-2.1,0-3.1-0.1c-0.5,0-1,0-1.5,0c-0.5,0-1,0-1.4,0.1c-1,0-1.9,0.1-2.8,0.1
			c-0.9,0.1-1.8,0.2-2.6,0.3c-3.4,0.5-6.3,1.1-8.6,1.9c-2.3,0.8-4.1,1.6-5.2,2.3c-1,0.6-1.5,1-1.6,1.1c0.1-0.1,0.6-0.6,1.5-1.3
			c1.1-0.8,2.8-1.8,5.1-2.8c2.3-1,5.2-1.9,8.6-2.6c3.4-0.7,7.4-1,11.7-1.1c4.3,0.1,8.9,0.3,13.8,1.1c1.2,0.2,2.4,0.4,3.7,0.6
			c1.2,0.3,2.5,0.5,3.7,0.8c2.5,0.5,5.1,1.1,7.6,1.7c5.1,1.2,10.5,2.4,15.9,3.6c5.4,1.2,10.9,2.2,16.5,3c5.5,0.8,11.1,1.4,16.6,1.4
			c5.5,0,10.8-0.4,15.9-1.4c1.3-0.2,2.6-0.5,3.8-0.8c0.6-0.1,1.2-0.3,1.9-0.4l0.5-0.1c0.1,0,0.3-0.1,0.4-0.1l0.9-0.2
			c2.4-0.7,4.6-1.5,6.8-2.5c4.3-2,8.2-4.4,11.7-6.7c3.6-2.3,6.9-4.4,10.2-5.7c1.6-0.7,3.2-1.2,4.7-1.4c1.5-0.3,2.9-0.3,4.2-0.3
			c2.5,0.1,4.4,0.7,5.7,1.2c0.6,0.2,1.1,0.4,1.4,0.6c0.2,0.1,0.4,0.2,0.4,0.2c-0.1,0-0.2-0.1-0.5-0.1c-0.3-0.1-0.8-0.3-1.5-0.4
			c-1.3-0.3-3.2-0.7-5.6-0.7c-1.2,0.1-2.5,0.2-4,0.6c-1.4,0.4-2.9,0.9-4.4,1.7c-3,1.5-6.2,3.7-9.6,6.2c-3.4,2.5-7.3,5.2-11.7,7.4
			c-2.2,1.1-4.6,2.1-7.1,2.9l-0.9,0.3c-0.2,0-0.3,0.1-0.5,0.1l-0.5,0.1c-0.6,0.2-1.3,0.3-1.9,0.5c-1.3,0.3-2.6,0.6-3.9,0.9
			c-5.3,1.1-10.9,1.7-16.5,1.7C415.8,225.2,410.1,224.6,404.5,223.8z M505.6,273c0.8,1.8,1.4,3.7,1.9,5.6c0.2,1,0.4,1.9,0.6,2.9
			c0.1,0.5,0.1,1,0.2,1.5c0,0.5,0.1,1,0.1,1.6c-0.4-0.4-0.7-0.8-1-1.2c-0.3-0.4-0.6-0.8-0.9-1.2c-0.6-0.8-1.1-1.7-1.6-2.6
			c-0.2-0.3-0.3-0.6-0.4-0.8c-1.9,6.6-6.7,21.6-15.8,38.2c-2.2,4-4.7,8.1-7.4,12.2l-2.6,5.2c-0.1,0.1-2.3,4.4-6.5,10.4
			c-0.7,0.9-1.4,1.9-2.2,2.9c-6.4,8.4-16.3,19.1-29.6,26.4c-0.9,0.5-1.7,0.9-2.6,1.4c-0.9,0.4-1.7,0.9-2.6,1.3
			c-1.2,0.6-2.5,1.1-3.8,1.6c-4.2,1.6-8.7,2.9-13.5,3.7c-1.2,0.2-2.3,0.4-3.5,0.5c-1.7,0.2-3.4,0.3-5.1,0.4c-0.6,0-1.3,0-1.9,0
			c-1.4,0-2.7,0-4.1-0.1c-1.2-0.1-2.4-0.2-3.6-0.4c-4.7-0.6-9.1-1.7-13.4-3.1c-1.4-0.5-2.8-1-4.2-1.6c-0.5-0.2-1-0.4-1.6-0.7
			c-1.6-0.7-3.2-1.5-4.7-2.2c-8.1-4.2-15.2-9.5-20.9-14.6c-0.6-0.5-1.2-1.1-1.8-1.6c-0.1-0.1-0.1-0.1-0.2-0.2
			c-12.3-11.4-20-23.1-21.1-24.9c0,0,0,0,0,0c-0.3-0.3-0.5-0.6-0.8-1c-5.3-6.2-9.8-12.5-13.7-18.3c-7.9-12-13-22.3-15.4-27.6
			c-0.3,0.7-0.6,1.4-1,2c-0.5,1-1.1,1.9-1.7,2.8c-0.2,0.3-0.5,0.6-0.7,1c-0.3,0.4-0.6,0.8-1,1.2c0-0.5,0-1,0.1-1.6
			c0-0.5,0.1-1,0.2-1.5c0.2-1,0.4-2,0.6-2.9c0.5-1.9,1.1-3.8,1.9-5.6l0.5-1.2l1.2,0.2c0.5,0.1,0.9,0.1,1.4,0.2
			c1.1,0.2,2.2,0.4,3.3,0.7c0.8,0.2,1.6,0.5,2.3,0.7c0.8,0.3,1.6,0.6,2.3,1c-0.8,0.2-1.6,0.4-2.5,0.5c-0.3,0-0.6,0.1-0.9,0.1
			c2.5,1.5,5.8,3.5,9.8,5.8c0,0,0.1,0,0.1,0c3.2,1.7,7.4,3.8,12.2,6.1c20.4,8.8,62.4,26.1,73.4,25.7c11.7-0.5,42-18,53.4-24.8
			c3.1-1.8,6.3-3.5,9.6-4.9l11.1-4.7c10.3-5.7,15.7-8.6,18.1-9.5c1.6-1.1,3-2,4.1-2.8c-0.1,0-0.2,0-0.2,0c-0.8,0-1.6-0.1-2.4-0.2
			c-0.8-0.1-1.6-0.3-2.5-0.5c0.8-0.4,1.5-0.7,2.3-1c0.8-0.3,1.6-0.5,2.3-0.7c1.6-0.4,3.1-0.7,4.7-0.9l1.2-0.2L505.6,273z
			 M504.2,218.1c0.6,0.8-1.9,3.1-6.5,6.4c-1,7.8-7.8,56-27.8,60.5c-1.9,0.4-3.9,0.6-5.8,0.6c-16.1,0-32.2-13.7-37.5-18.6
			c-1.1-1-1.8-1.7-1.8-1.7l-0.4-0.4l0.1,0l-11-2.4c0,0-2.8,0.7-4.1-3.8c0,0,0-0.1,0-0.1c-0.5-2-0.8-5.1-0.3-9.6
			c0-0.4,0.1-0.7,0.1-1.1c0,0,0.1,7.6,8.4,10.2c8.3,2.6,43.8-23.2,47.6-26.5C469,228.4,500.9,214.1,504.2,218.1z M485.7,193
			c1-0.1,1.8,0,2.4,0c1.3,0.2,2,0.2,2,0.2s-0.7,0-2-0.1c-0.7,0.1-1.5,0.1-2.4,0.3c-0.9,0.2-2,0.4-3.2,0.7c-2.4,0.6-5.2,1.6-8.4,2.8
			c-3.2,1.2-6.8,2.7-10.7,4.2c-3.9,1.5-8.2,3.2-12.8,4.7c-4.6,1.5-9.6,3.1-14.6,4.4c-5.2,1.3-10.7,2.4-16.4,2.5l-1.1,0l-1.1,0
			l-2.2-0.1c-0.7,0-1.4-0.1-2.2-0.2c-0.7-0.1-1.5-0.1-2.2-0.3c-1.4-0.2-2.9-0.5-4.2-0.8c-1.4-0.3-2.8-0.7-4.2-1.1
			c-5.5-1.6-10.8-3.3-16.1-4.7c-5.3-1.4-10.5-2.7-15.7-3.7c-1.3-0.2-2.6-0.5-3.8-0.7c-1.3-0.2-2.5-0.4-3.8-0.6
			c-2.5-0.5-4.9-0.6-7.3-0.9c-1.2-0.2-2.4-0.1-3.5-0.2c-1.1,0-2.3-0.1-3.4-0.1c-1.1,0-2.2,0.1-3.3,0.1c-0.5,0-1.1,0-1.6,0
			c-0.5,0.1-1,0.1-1.6,0.1c-1,0.1-2.1,0.2-3,0.3c-1,0.2-1.9,0.3-2.9,0.5c-0.5,0.1-0.9,0.1-1.4,0.2c-0.5,0.1-0.9,0.2-1.3,0.3
			c-0.9,0.2-1.7,0.4-2.5,0.6c-3.3,0.9-6,2-8.2,3.1c-2.2,1.1-3.8,2.2-4.8,2.9c-1,0.8-1.5,1.3-1.5,1.3s0.4-0.5,1.4-1.5
			c1-0.9,2.5-2.1,4.6-3.4c2.1-1.2,4.9-2.6,8.1-3.7c0.8-0.3,1.7-0.5,2.6-0.8c0.4-0.1,0.9-0.3,1.3-0.4c0.5-0.1,0.9-0.2,1.4-0.3
			c1-0.2,1.9-0.4,2.9-0.6c1-0.1,2.1-0.3,3.1-0.4c0.5-0.1,1.1-0.1,1.6-0.2c0.5,0,1.1-0.1,1.6-0.1c1.1-0.1,2.2-0.2,3.4-0.2
			c1.1,0,2.3,0,3.5,0c1.2,0,2.4,0,3.6,0.1c2.4,0.2,5,0.2,7.5,0.7c1.3,0.2,2.6,0.3,3.9,0.5c1.3,0.2,2.6,0.4,3.9,0.7
			c1.3,0.2,2.6,0.5,3.9,0.7c1.3,0.3,2.7,0.6,4,0.8c2.7,0.6,5.4,1.2,8.1,1.9c5.4,1.4,10.8,3.1,16.2,4.6c1.3,0.4,2.7,0.7,4,1
			c1.3,0.4,2.7,0.6,4,0.8c0.7,0.1,1.3,0.2,2,0.3c0.7,0.1,1.3,0.2,2,0.2l2,0.1l1,0l1,0c5.3-0.1,10.7-1,15.7-2.1
			c5.2-1.2,10-2.5,14.6-3.9c4.6-1.4,8.9-2.8,12.9-4.1c4-1.4,7.7-2.6,10.9-3.6c1.6-0.5,3.2-1,4.6-1.4c1.5-0.3,2.8-0.7,4-0.9
			C483.6,193.1,484.7,193,485.7,193z M398.3,192.5c2.7,0.4,5.3,0.9,8,1.2c1.3,0.2,2.7,0.4,4,0.5c1.3,0.1,2.7,0.3,4,0.4
			c1.3,0.2,2.6,0.2,3.9,0.3c1.3,0.1,2.6,0.2,3.9,0.3s2.6,0.1,3.8,0.1c1.3,0.1,2.5,0,3.8,0c0.6,0,1.2,0,1.9,0c0.6,0,1.2-0.1,1.8-0.1
			c0.6-0.1,1.2-0.1,1.8-0.2c0.6-0.1,1.2-0.1,1.8-0.2c1.2-0.2,2.3-0.4,3.4-0.6c1.1-0.2,2.3-0.6,3.4-0.8c4.5-1.2,8.7-2.4,12.5-3.7
			c3.8-1.3,7.3-2.6,10.4-3.8c3.1-1.2,5.7-2.4,7.9-3.4c2.2-1,3.8-1.8,5-2.4c0.6-0.3,1-0.5,1.3-0.7c0.2-0.1,0.3-0.2,0.4-0.3
			c0,0-0.2,0.1-0.4,0.3c-0.3,0.2-0.7,0.5-1.2,0.8c-1.1,0.7-2.7,1.7-4.7,2.8c-2.1,1.2-4.6,2.5-7.6,3.9c-3,1.4-6.4,3-10.2,4.5
			c-3.8,1.5-8,3-12.5,4.3c-1.1,0.3-2.2,0.7-3.4,1c-1.2,0.3-2.4,0.5-3.7,0.8c-1.2,0.2-2.5,0.3-3.8,0.5c-0.6,0.1-1.3,0.2-1.9,0.2
			c-0.6,0-1.3,0.1-1.9,0.1c-5.2,0.3-10.5,0.1-15.9-0.4c-1.3-0.1-2.7-0.3-4-0.4c-1.3-0.1-2.7-0.3-4-0.5c-2.7-0.3-5.4-0.8-8.1-1.2
			c-5.4-0.9-10.7-2-16-3.1c-5.2-1.1-10.3-2.4-15.3-3.7c-4.9-1.2-9.7-2.7-14.1-3.9c-4.3-1.1-8.7-1.2-12.6-0.5
			c-3.9,0.7-7.3,2-10.2,3.4c-2.9,1.5-5.3,3.1-7.2,4.5c-1.9,1.4-3.3,2.7-4.2,3.5c-0.8,0.8-1.3,1.2-1.4,1.3c0.1-0.1,0.5-0.6,1.2-1.5
			c0.8-1,2.1-2.3,3.9-3.9s4.1-3.4,7-5.1c2.9-1.7,6.4-3.3,10.5-4.2c2-0.5,4.2-0.8,6.5-0.8c2.3,0,4.6,0.2,7,0.7
			c4.5,1.1,9.3,2.3,14.3,3.5c4.9,1.2,10,2.3,15.3,3.4C387.7,190.6,393,191.6,398.3,192.5z"/>
		<path id="XMLID_614_" class="st6" d="M404.6,353.3v21.7c1.6,0.3,3.1,0.5,4.7,0.7c0.4,0,0.9-0.1,1.3-0.1c4.6-0.9,9-2.1,13.2-3.6
			v-20.8c-6.1,1.4-12.3,2.1-18.6,2.1C405,353.3,404.8,353.3,404.6,353.3z"/>
		<path id="XMLID_616_" class="st6" d="M356.3,352.5c6.1,4.8,12.8,9.2,20,12.9v-16.6c-7.2-2.3-13.9-5.3-20-8.7V352.5z"/>
		<path id="XMLID_617_" class="st6" d="M334.1,324.4c-2.3-2-4.5-4.1-6.5-6c-2.4-2.3-4.6-4.6-6.6-6.9v2c3.8,5.6,8.1,11.5,13.1,17.4
			V324.4z"/>
		<path id="XMLID_647_" class="st6" d="M277.1,282.9c-0.1-1.8-0.1-3.7-0.1-5.5c0,0-0.1-1.2-0.1-3.2c-0.1-0.3-0.1-0.5-0.2-0.8
			c-0.2-0.5-0.4-1-0.7-1.4c-0.1-0.2-0.3-0.5-0.5-0.7c-0.2-0.2-0.4-0.5-0.6-0.7c-0.4-0.4-1-0.8-1.6-1.2l-0.5-0.3l-0.2-0.2l-0.3-0.3
			c-0.4-0.3-0.8-0.7-1.1-1.1c-0.6-0.8-1-1.7-1.2-2.5c-0.2-0.9-0.3-1.7-0.3-2.5c0-1.6,0.2-3.1,0.5-4.2c0.3-1.2,0.7-2.1,1-2.8
			c0.3-0.7,0.5-1,0.5-1s-0.2,1.6-0.3,4c0,1.2-0.1,2.5,0.1,3.9c0.2,1.4,0.7,2.8,1.5,3.7c0.2,0.2,0.5,0.4,0.7,0.5l0.2,0.1l0.3,0.1
			l0.5,0.3c0.8,0.4,1.5,0.8,2.2,1.4c0-7.7,0.2-19.5,1.5-32.8c-0.1-0.1-0.3-0.2-0.5-0.3c-0.2-0.1-0.5-0.2-0.7-0.4
			c-0.3-0.1-0.5-0.2-0.8-0.3c-0.2,0-0.3-0.1-0.5-0.1c-0.2,0-0.3,0-0.5-0.1c-0.3-0.1-0.7,0-1-0.1c-0.4,0-0.7,0.1-1.1,0.1
			c-0.3,0.1-0.7,0.2-1,0.2c-0.3,0.1-0.7,0.2-1,0.3c-0.3,0.1-0.6,0.3-0.8,0.4c-0.5,0.2-0.9,0.5-1.2,0.7c-0.3,0.2-0.5,0.3-0.5,0.3
			s0.1-0.1,0.4-0.4c0.2-0.2,0.5-0.7,1-1c0.2-0.2,0.5-0.4,0.7-0.6c0.3-0.2,0.6-0.4,0.9-0.6c0.3-0.2,0.7-0.4,1.1-0.6
			c0.4-0.2,0.8-0.3,1.2-0.5c0.4-0.1,0.8-0.2,1.3-0.3c0.2,0,0.4-0.1,0.6-0.1c0.2,0,0.4,0,0.6,0c0.4,0,0.8,0,1.2,0.1
			c0.3,0,0.6,0.1,0.9,0.1c0.2-2.1,0.5-4.2,0.7-6.4c-0.7-0.8-2.4-2.2-4.4-1.9c-1.8,0.3-5,2.3-8.4,11.5c-0.5,1.3-1,2.8-1.5,4.4
			c-1.7,5.7-2.4,11.1-2.3,16.1c0.2,10,3.5,18.1,7.9,22.9C272.8,281.4,275.2,282.8,277.1,282.9z"/>
		<path id="XMLID_685_" class="st6" d="M540.9,233.1c-2.9-0.6-5.3-0.4-7.1,0.7c-1.5,0.9-2.4,2.3-2.8,3.3c1.1,12.5,1.4,23.7,1.4,31.1
			c0.7-0.6,1.4-1,2.2-1.4l0.5-0.2l0.3-0.1l0.1-0.1c0.2-0.1,0.4-0.3,0.6-0.5c0.8-0.8,1.3-2.2,1.5-3.6c0.1-0.7,0.1-1.4,0.1-2
			c0-0.7,0-1.3,0-1.9c0-1.2-0.1-2.2-0.1-2.9c0-0.7-0.1-1.1-0.1-1.1s1,1.4,1.7,3.8c0.2,0.6,0.3,1.3,0.4,2c0.1,0.7,0.2,1.5,0.2,2.3
			s-0.1,1.7-0.3,2.6c-0.2,0.9-0.6,1.8-1.3,2.6c-0.2,0.2-0.3,0.4-0.5,0.6c-0.2,0.2-0.4,0.4-0.6,0.5l-0.3,0.3l-0.2,0.2l-0.5,0.3
			c-0.6,0.4-1.1,0.7-1.5,1.2c-0.2,0.2-0.4,0.4-0.6,0.7c-0.2,0.2-0.3,0.5-0.5,0.7c-0.3,0.5-0.5,1-0.7,1.4c-0.2,0.5-0.3,0.9-0.3,1.3
			c0,0,0,0.1,0,0.1c0,0,0,0,0,0c0,1.6-0.1,2.5-0.1,2.6c0,1.8-0.1,3.6-0.2,5.4c1.8-0.3,3.9-1.7,5.9-3.8c2.2-2.4,4.1-5.7,5.5-9.6
			c2.8-7.7,3.5-18.1,0.1-29.4C542.6,237.3,541.7,235,540.9,233.1z"/>
		<path id="XMLID_686_" class="st6" d="M533.6,224.2c-1.6-0.3-3,0.6-3.9,1.4c0.3,2.2,0.5,4.3,0.8,6.5c0.5-0.4,1-0.8,1.5-1.2
			c2-1.2,4.4-1.8,7.1-1.6C536.8,225.5,534.8,224.4,533.6,224.2z"/>
		<path id="XMLID_690_" class="st6" d="M488.5,298.2c5-7.4,8.7-14,10.9-18.5c-2.9,2-6.6,4.5-10.9,7.4V298.2z"/>
		<path id="XMLID_694_" class="st6" d="M488.5,309.9c3.2-6.4,5.8-12.3,7.8-17.5c-2.2,3.6-4.8,7.6-7.8,11.7V309.9z"/>
		<path id="XMLID_696_" class="st6" d="M469.5,325.8v13.3c6.2-7.4,11.3-15.2,15.5-22.7v-7.6c-1.4,1.8-2.9,3.7-4.5,5.5
			C477,318.4,473.3,322.3,469.5,325.8z"/>
		<path id="XMLID_697_" class="st6" d="M469.5,321c3.1-3,5.9-6.1,8.4-9c2.6-3,4.9-6,7.1-9v-13.7c-4.7,3.1-10,6.5-15.5,10V321z"/>
		<path id="XMLID_700_" class="st6" d="M466,272.1c6.1-1.8,12.2-24.4,13.2-28.3l-9.7,5.4c0,0,0,0,0,0c0.5,1.2,2.5,7.1,0.5,11.5
			c-0.9,2.1-2.6,3.5-5,4.3c-1.2,0.4-2.3,0.6-3.3,0.6c-1.4,0-2.7-0.4-3.8-1.1c-2.8-1.9-3.6-5.5-3.8-6.7l-8.1,4.5
			C448,264,459.9,273.9,466,272.1z"/>
		<path id="XMLID_704_" class="st6" d="M450.7,357.3c5.7-4.4,10.8-9.2,15.4-14.3v-14.1c-5,4.3-10.1,8.1-15.4,11.3V357.3z"/>
		<path id="XMLID_705_" class="st6" d="M450.7,336.1c5.7-3.6,10.8-7.6,15.4-11.8v-22.8c-5,3.1-10.2,6.2-15.4,9.2V336.1z"/>
		<path id="XMLID_706_" class="st6" d="M427.2,370.8c7.3-2.9,14-6.6,20.1-10.9v-17.7c-6.5,3.6-13.2,6.3-20.1,8.2V370.8z"/>
		<path id="XMLID_707_" class="st6" d="M427.2,346.8c7.3-2.1,13.9-5.1,20.1-8.6v-25.6c-6.9,3.9-13.7,7.5-20.1,10.5V346.8z"/>
		<path id="XMLID_710_" class="st6" d="M404.6,349.9c0.2,0,0.4,0,0.6,0c6.6,0,12.8-0.8,18.6-2.2v-23c-7.5,3.3-14.2,5.6-19.2,6.2
			V349.9z"/>
		<path id="XMLID_715_" class="st6" d="M379.8,367.1c0.8,0.4,1.6,0.7,2.4,1.1c0.3,0.1,0.6,0.3,0.9,0.4c5.7,2.4,11.7,4.4,18.1,5.8
			v-21.1c-7.5-0.3-14.6-1.5-21.3-3.4V367.1z"/>
		<path id="XMLID_716_" class="st6" d="M379.8,346.3c6.7,1.9,13.8,3.2,21.3,3.5V331c-5.6-0.2-13-2.3-21.3-5.4V346.3z"/>
		<path id="XMLID_720_" class="st6" d="M356.3,336.2c6.1,3.5,12.8,6.7,20,9v-21c-6.4-2.6-13.2-5.7-20-9V336.2z"/>
		<g id="XMLID_6_">
			<path id="XMLID_687_" class="st6" d="M484,732.7c-9,0-15.9-1-20.5-2.5c-1.8-0.6-3.2-1.2-4.2-1.8c-2.7-1.7-4.1-2.6-7-1.5
				c-4.9,1.8-9,0.1-11.9-2.5c0.4,2.1,0.9,3.5,1.5,3.9c3.8,2.6,8.6,3.3,13.2,1.9c2.3-0.7,5-0.1,8.2,0.8c0.7,0.2,1.5,0.5,2.3,0.7
				c4.4,1.4,9.9,3.2,16.8,3.6c13,0.7,27.5-2.1,30.6-10.1c0.2-0.6,0.4-1.3,0.5-2C503.4,734,485.7,732.7,484,732.7z"/>
			<path id="XMLID_721_" class="st6" d="M365.1,726.9c-3.2-1.2-6.2,0.1-10.7,1.9c-5.8,2.4-13.5,5.6-26.1,5.6c-2,0-4.1-0.1-6.3-0.2
				c-9.8-0.8-16.8-2.4-20.8-4.9c0,0,0,0.1,0,0.1c3,7.7,21.5,6.7,33.8,6c7-0.4,12.4-2.1,16.8-3.6c4.3-1.4,7.6-2.5,10.5-1.6
				c4.5,1.4,9.3,0.7,13.2-1.9c0.6-0.4,1.1-1.8,1.5-3.9C374.1,727,370,728.7,365.1,726.9z"/>
		</g>
		<path id="XMLID_722_" class="st6" d="M341,270.4c5.9,1.7,17.4-7.4,19.3-9l-5.5-2.9c-0.4,1.5-1.4,3.8-3.5,5.2c-1.1,0.7-2.3,1-3.6,1
			c-1,0-2-0.2-3.2-0.5c-2.3-0.7-3.9-2.1-4.8-4c-1.6-3.4-0.5-7.6,0.2-9.6l-11.6-6.2C329.2,248,335.1,268.7,341,270.4z"/>
		<path id="XMLID_723_" class="st6" d="M352.9,349.7v-11.5c-5.6-3.4-10.8-7.1-15.4-10.9v7.5C342.2,339.9,347.3,345,352.9,349.7z"/>
		<path id="XMLID_724_" class="st6" d="M337.5,322.9c4.6,3.9,9.7,7.8,15.4,11.3v-20.7c-5.2-2.6-10.4-5.4-15.4-8.1V322.9z"/>
		<path id="XMLID_726_" class="st6" d="M330.1,316c1.3,1.3,2.6,2.5,4,3.8v-16.3c-4.7-2.6-9.1-5.1-13.1-7.4v10.2
			C323.7,309.5,326.7,312.8,330.1,316z"/>
		<path id="XMLID_729_" class="st6" d="M317.6,302.2v-8.1c-4.1-2.4-7.6-4.5-10.4-6.2C309.5,291.6,313,296.6,317.6,302.2z"/>
	</g>
</g>
<g id="XMLID_1_">
	<path id="XMLID_684_" class="st7" d="M518.2,565.6c0.3,3.6,0.7,6.9,0.4,9.6c3.6,1.9,5.6,0,5.9-0.3c0,0,0,0,0,0c0,0,0,0,0,0l0,0
		c0.1-0.1,0.3-0.3,0.6-0.5c0.4-0.4,0.9-0.9,1.5-1.6c0.6-0.7,1.3-1.4,2-2.3c0.7-0.9,1.4-1.8,2.1-2.8c0.3-0.5,0.6-1,0.8-1.5l0.2-0.4
		l0.2-0.4c0.1-0.3,0.2-0.6,0.4-0.8c0.3-0.6,0.6-1.1,0.9-1.5c0.3-0.5,0.7-0.8,1-1.2c0.7-0.7,1.4-1,2-1.2c0.3-0.1,0.5-0.1,0.6-0.1
		c0.1,0,0.2,0,0.2,0s-0.1,0-0.2,0c-0.1,0-0.3,0.1-0.6,0.2c-0.5,0.2-1.1,0.7-1.6,1.4c-0.3,0.4-0.5,0.8-0.7,1.2
		c-0.2,0.5-0.4,1-0.6,1.5c-0.1,0.3-0.1,0.5-0.2,0.8l-0.1,0.4l-0.1,0.5c-0.2,0.6-0.4,1.3-0.6,1.9c-0.5,1.2-1.1,2.3-1.7,3.4
		c-0.6,1-1.2,2-1.7,2.8c-0.5,0.8-1,1.4-1.3,1.9c-0.3,0.4-0.5,0.6-0.5,0.7c0,0,0,0,0,0c-0.5,0.6-1.7,2.4-1.3,3.8
		c0.4,1.1,1.9,1.8,3.2,2.1c0.9,0.2,1.8,0.3,2.9,0.3c0.2,0,0.4-0.1,0.8-0.2c0.3-0.1,0.7-0.2,1.2-0.4c0.4-0.2,1-0.4,1.5-0.7
		c0.3-0.1,0.5-0.3,0.8-0.5c0.3-0.2,0.5-0.4,0.8-0.6c0.5-0.4,1.1-0.9,1.6-1.5c0.5-0.6,1-1.3,1.6-2c0.5-0.7,1.1-1.5,1.9-2.2l0.3-0.2
		l0.3-0.2c0.1-0.1,0.3-0.2,0.4-0.4l0.4-0.5l0.4-0.5c0.5-0.7,0.9-1.4,1.3-2.1c0.8-1.5,1.5-2.9,2-4.1c1-2.3,1.6-3.9,1.7-4.1
		c0,0.2-0.5,1.9-1.2,4.3c-0.4,1.3-0.9,2.8-1.5,4.4c-0.3,0.8-0.7,1.6-1.1,2.4l-0.3,0.6l-0.4,0.6c-0.1,0.2-0.3,0.4-0.5,0.6l-0.4,0.5
		c-0.5,0.6-0.9,1.3-1.4,2.1c-0.4,0.7-0.8,1.5-1.3,2.2c1.5-0.7,3-1.6,4.4-2.7c0.1-0.1,0.1-0.1,0.2-0.2c0.3-0.2,0.6-0.6,1.1-1
		c0.2-0.2,0.4-0.5,0.7-0.7c0.2-0.3,0.5-0.6,0.7-0.9c0.3-0.3,0.5-0.7,0.7-1c0.2-0.4,0.5-0.7,0.7-1.1c0.9-1.5,1.7-3.1,2.2-4.3
		c0.5-1.2,0.8-2.1,0.8-2.1s-0.1,0.9-0.3,2.2c-0.2,0.9-0.4,2.1-0.7,3.3c1.7-2.1,3.2-4.6,4.1-7.2c2.5-7,1.8-17.4,0.8-24.9l-36.6,8.2
		C517,552.7,517.6,559.5,518.2,565.6z"/>
	<path id="XMLID_731_" class="st7" d="M262.2,565.4c1,2.7,2.4,5.1,4.1,7.2c-0.3-1.2-0.6-2.4-0.7-3.3c-0.2-1.3-0.3-2.1-0.3-2.2
		c0,0,0.3,0.8,0.8,2.1c0.5,1.2,1.3,2.8,2.2,4.3c0.2,0.4,0.5,0.7,0.7,1.1c0.2,0.3,0.5,0.7,0.7,1c0.3,0.3,0.5,0.6,0.7,0.9
		c0.2,0.3,0.5,0.5,0.7,0.7c0.4,0.4,0.8,0.8,1.1,1c0.1,0.1,0.2,0.2,0.3,0.2c0.1,0,0.1,0.1,0.1,0.1c1.4,1,2.9,1.8,4.3,2.5
		c-0.5-0.7-0.9-1.4-1.3-2.2c-0.4-0.8-0.9-1.5-1.4-2.1l-0.4-0.5c-0.2-0.2-0.4-0.4-0.5-0.6l-0.4-0.6l-0.3-0.6
		c-0.4-0.8-0.8-1.6-1.1-2.4c-0.6-1.6-1.1-3.1-1.5-4.4c-0.7-2.4-1.2-4.1-1.2-4.3c0.1,0.2,0.7,1.8,1.7,4.1c0.5,1.2,1.2,2.6,2,4.1
		c0.4,0.7,0.8,1.5,1.3,2.1l0.4,0.5l0.4,0.5c0.1,0.2,0.3,0.2,0.4,0.4l0.3,0.2l0.3,0.2c0.8,0.7,1.3,1.5,1.9,2.2c0.5,0.7,1,1.4,1.6,2
		c0.5,0.6,1.1,1.1,1.6,1.5c0.3,0.2,0.5,0.4,0.8,0.6c0.3,0.2,0.5,0.3,0.8,0.5c0.5,0.3,1,0.5,1.5,0.7c0.5,0.1,0.9,0.3,1.2,0.4
		c0.3,0.1,0.6,0.1,0.7,0.2c1.1,0,2.1-0.1,2.9-0.3c1.3-0.4,2.9-1,3.2-2.1c0.4-1.4-0.9-3.3-1.3-3.8c0,0,0,0,0,0c0-0.1-0.2-0.3-0.5-0.7
		c-0.3-0.5-0.8-1.1-1.3-1.9c-0.5-0.8-1.1-1.7-1.7-2.8c-0.6-1-1.2-2.2-1.7-3.4c-0.2-0.6-0.5-1.2-0.6-1.9l-0.1-0.5l-0.1-0.4
		c-0.1-0.3-0.1-0.6-0.2-0.8c-0.1-0.5-0.3-1-0.6-1.5c-0.2-0.5-0.5-0.9-0.7-1.2c-0.5-0.7-1.1-1.2-1.6-1.4c-0.2-0.1-0.4-0.2-0.6-0.2
		c-0.1,0-0.2,0-0.2,0s0.1,0,0.2,0c0.1,0,0.4,0,0.6,0.1c0.5,0.1,1.3,0.5,2,1.2c0.3,0.3,0.7,0.7,1,1.2c0.3,0.5,0.6,1,0.9,1.5
		c0.1,0.3,0.3,0.6,0.4,0.8l0.2,0.4l0.2,0.4c0.2,0.5,0.5,1,0.8,1.5c0.6,1,1.4,2,2.1,2.8c0.7,0.9,1.4,1.7,2,2.3
		c0.6,0.7,1.1,1.2,1.5,1.6c0.3,0.3,0.5,0.5,0.6,0.5c0,0,0,0,0,0c0.2,0.2,1.1,0.9,2.6,1.1c0.8,0.1,1.6-0.2,2.2-0.8
		c0.6-0.6,1-1.5,1-2.3c0-2.2,0.2-4.7,0.5-7.3c0.6-6.1,1.3-12.9-1.1-17l-36.6-8.2C260.4,548,259.7,558.5,262.2,565.4z"/>
</g>
<g id="XMLID_16_">
	<g id="XMLID_9_">
		<path id="XMLID_2_" class="st8" d="M396.5,455.4c0-12.3-0.6-21.7-1-25.3c-1.2-9.2-10.1-32-15.6-45.3c-11.6-4-21.6-8.1-30.5-12.3
			c0,0.9,0.1,1.9,0.2,2.9c0,0.1,0,0.2,0,0.3l3.1,0.5c0.9,0.1,1.6,0.8,1.9,1.6c0.3,0.9,0,1.8-0.6,2.4l-4.1,4l-16.8,16.3l15.8,23
			l2,2.9l43.8,63.7C396,477.7,396.5,465.6,396.5,455.4z"/>
		<path id="XMLID_692_" class="st8" d="M491.2,375.5c-4.1-2.1-8.6-4.1-12.8-5.7c-1.2-0.5-2.3-0.9-3.4-1.3c-0.2-0.1-0.5-0.2-0.7-0.3
			l0.5,4.9l0.3,2.7c0.1,0.8-0.2,1.5-0.8,2c-0.3,0.3-0.7,0.5-1.2,0.6l-5.7,0.9l6.1,5.9l3.5,3.4l0.3,0.3l2.8,2.7l7.3,7.1
			c0.8,0.8,1,2.1,0.3,3L476,419.4c-0.7,3-1,7-1,11.7c10.5,12.5,29.7,36.4,33.9,48.9c2.8-0.5,9-1.7,13.8-2.8c0.7-0.4,1.4-0.7,2.1-1
			c0.8-0.4,1.5-0.7,2.2-1c0.7-0.3,1.5-0.5,2.1-0.7c0.7-0.2,1.3-0.3,1.9-0.4c0.6-0.1,1.1-0.1,1.5-0.1c0.4,0,0.8,0,1,0.1
			c0.2,0,0.4,0.1,0.4,0.1c0,0-0.1,0.1-0.3,0.2c-0.2,0.2-0.4,0.4-0.7,0.7c-0.3,0.3-0.6,0.7-1,1.1c-0.4,0.4-0.9,0.8-1.4,1.2
			c-0.5,0.4-1.1,0.9-1.8,1.3c-0.6,0.4-1.3,0.9-2.1,1.3c-0.3,0.2-0.7,0.4-1,0.6c-1.1,0.7-2.3,1.4-3.5,2.1c-1.6,0.9-3.1,1.8-4.6,2.6
			c-0.7,0.4-1.5,0.8-2.2,1.1c-0.7,0.4-1.3,0.7-2,1c-1.1,0.6-2.1,1-2.8,1.3c2.6,17.6,3.6,49.1,3.8,57.6l2.2-0.5l38.7-8.6l3.4-0.8
			l5.9-1.3c-3-18-11.6-61.1-20.4-68.9c-9.8-8.8-27-50.9-35.3-71.1c-1.6-3.9-2.9-7.1-3.6-8.8c-1.3-2.9-5.7-6.1-11.2-9.2
			C493.3,376.5,492.3,376,491.2,375.5C491.2,375.5,491.2,375.5,491.2,375.5z"/>
		<path id="XMLID_698_" class="st8" d="M424,421.1c-1.1,3.6-1.8,6.7-2.1,9c-0.9,7.5-0.4,32.6,4,59l41-62.2l2-3l2.1-3.1l13.4-20.3
			l-8.9-8.6c-0.1,0-0.1-0.1-0.2-0.1c-0.5-0.3-0.9-0.7-1.2-1.2l-10.7-10.3c-0.7-0.6-0.9-1.6-0.6-2.4c0.3-0.9,1-1.5,1.9-1.6l6.8-1.1
			l-0.7-6.9c-10.4,6-21.5,11.1-32.8,15.3C433.9,393.5,427.4,409.7,424,421.1z"/>
		<path id="XMLID_702_" class="st8" d="M472,427.5c0.1-0.9,0.2-1.7,0.3-2.4l-1.1,1.6l-2,3L427,493.8l-0.2-0.1
			c2.7,14.7,6.7,29.5,12.4,41.8c1.4,3,2.8,5.8,4.4,8.4c19.1,31.9,12.6,114.8,11.2,130c5.5-1,20.5-4,35.2-8.9
			c0.3-0.2,2.2-0.7,2.2-0.7c12-4.2,23.5-9.6,29.3-16.2c-1-7-8.7-60.9-20.1-73.3c-11.6-12.6-31.2-103.8-29.7-142.3
			C471.7,430.7,471.8,429,472,427.5z"/>
		<path id="XMLID_711_" class="st8" d="M422,391.9c0.9-1.3,1.8-2.6,2.6-3.9c-1.3,0.4-2.5,0.8-3.8,1.1L422,391.9z"/>
		<path id="XMLID_718_" class="st8" d="M389.7,388.1c1.2,2.8,2.5,5.5,3.8,8.2l2.8-6.5c-1.2-0.1-2.3-0.3-3.2-0.6
			C392,388.8,390.8,388.5,389.7,388.1z"/>
		<path id="XMLID_719_" class="st8" d="M362.8,673.9c-0.6-14.7-2.8-96.2,16.4-128.1c1.8-3,3.4-6.2,4.8-9.6c0.4-1.1,0.9-2.1,1.3-3.3
			c4.3-11.3,7.1-24.5,8.8-37.6l-45.5-66.2c-0.8,1-1.8,2.1-2.8,3.3c1.5,38.4-18.1,129.7-29.7,142.3c-11.3,12.4-19.1,66.3-20.1,73.3
			c5.8,6.7,17.3,12.1,29.3,16.2C325.3,664.2,357.4,672.9,362.8,673.9z"/>
		<path id="XMLID_725_" class="st8" d="M346.6,426.2l-1.7-2.4l-1.1-1.5l-14.1-20.5c-0.7-1-0.5-2.2,0.3-3l15.4-14.9l4.4-4.2v0
			l0.2-0.2l-0.2,0l-3.4-0.5c0-0.9-0.1-2-0.2-2.9c0-0.2,0-0.4-0.1-0.6c-0.1-0.7-0.1-1.4-0.2-2.1c0-0.7-0.1-1.4-0.1-2.1
			c-1.1-0.5-2.1-1-3.1-1.6c-0.4-0.2-0.8-0.4-1.2-0.6c-3,1.1-6.2,2.5-9.4,3.9c-1.2,0.5-2.3,1.1-3.5,1.6c-8,3.8-15.1,8.2-16.8,12
			c-0.7,1.7-2,4.8-3.6,8.8c-8.3,20.2-25.5,62.2-35.3,71.1c-8.7,7.9-17.4,51-20.4,68.9l5.9,1.3l3.4,0.8l38.7,8.6l2.2,0.5
			c0.2-8.8,1.3-42.3,4.1-59.4c-2-1.3-6.6-4.2-11.2-7.1c-3.1-1.9-6.1-3.8-8.4-5.3c-1.2-0.7-2.1-1.3-2.8-1.7c-0.3-0.2-0.6-0.3-0.8-0.4
			c-0.2-0.1-0.3-0.1-0.3-0.1c0,0,0.1,0,0.3,0c0.2,0,0.5,0.1,0.9,0.3c0.8,0.3,1.8,0.7,3.1,1.2c2.1,0.9,4.7,2.1,7.4,3.3
			c0,0,0.1,0,0.1,0c1.7,0.3,3.9,0.7,6.2,1.2c2.7,0.6,5.5,1.2,7.2,1.6c4.3-12.5,23.3-36.2,33.8-48.7c1.2-1.4,2.2-2.6,3.1-3.7
			C345.8,427,346.2,426.6,346.6,426.2z"/>
		<path id="XMLID_730_" class="st8" d="M304.8,482.4c0.7,0.4,1.4,1.7,1.9,1.9c0-0.1,0.7-2.3,0.8-2.5c-1.4-0.6-4.4-0.5-6.7-1.5
			C302.3,481,303.6,481.8,304.8,482.4z"/>
	</g>
	<path id="XMLID_15_" class="st8" d="M513.2,483.2c-0.7,0.4-1.4,1.7-1.9,1.9c0-0.1-0.7-2.3-0.8-2.5c1.4-0.6,4.4-0.5,6.7-1.5
		C515.8,481.9,514.4,482.6,513.2,483.2z"/>
</g>
</svg>
